<svg xmlns="http://www.w3.org/2000/svg" xmlns:xlink="http://www.w3.org/1999/xlink" viewBox="0 0 880.15 876.59"><defs><style>.cls-1{isolation:isolate;}.cls-2{fill:#f4f7fa;opacity:0.32;}.cls-3{fill:#d8dee8;}.cls-4{fill:url(#linear-gradient);}.cls-5{fill:url(#linear-gradient-2);}.cls-20,.cls-22,.cls-26,.cls-34,.cls-42,.cls-6,.cls-62,.cls-67,.cls-73,.cls-81{opacity:0.3;}.cls-20,.cls-22,.cls-26,.cls-34,.cls-42,.cls-44,.cls-48,.cls-6,.cls-62,.cls-67,.cls-73,.cls-81{mix-blend-mode:multiply;}.cls-6{fill:url(#linear-gradient-3);}.cls-7{fill:#fff;}.cls-8{fill:#b7c0ce;}.cls-9{fill:url(#linear-gradient-4);}.cls-10{fill:url(#linear-gradient-5);}.cls-11{fill:url(#linear-gradient-6);}.cls-12{fill:url(#linear-gradient-7);}.cls-13{fill:url(#linear-gradient-8);}.cls-14{fill:url(#linear-gradient-9);}.cls-15{fill:url(#linear-gradient-10);}.cls-16{fill:url(#linear-gradient-11);}.cls-17{fill:url(#linear-gradient-12);}.cls-18{fill:url(#linear-gradient-13);}.cls-19{fill:url(#linear-gradient-14);}.cls-20{fill:url(#linear-gradient-15);}.cls-21{fill:url(#linear-gradient-16);}.cls-22{fill:url(#linear-gradient-17);}.cls-23{fill:url(#linear-gradient-18);}.cls-24{fill:url(#linear-gradient-19);}.cls-25{fill:url(#linear-gradient-20);}.cls-26{fill:url(#linear-gradient-21);}.cls-27{fill:url(#linear-gradient-22);}.cls-28{fill:url(#linear-gradient-23);}.cls-29{fill:url(#linear-gradient-24);}.cls-30{fill:url(#linear-gradient-25);}.cls-31{fill:url(#linear-gradient-26);}.cls-32{fill:url(#linear-gradient-27);}.cls-33{fill:url(#linear-gradient-28);}.cls-34{fill:url(#linear-gradient-29);}.cls-35{fill:#c47eb7;}.cls-36{fill:url(#linear-gradient-30);}.cls-37{fill:url(#linear-gradient-31);}.cls-38{fill:url(#linear-gradient-32);}.cls-39{fill:url(#linear-gradient-33);}.cls-40{fill:url(#linear-gradient-34);}.cls-41{fill:url(#linear-gradient-35);}.cls-42{fill:url(#linear-gradient-36);}.cls-43{fill:url(#linear-gradient-37);}.cls-44{opacity:0.2;}.cls-45{fill:url(#linear-gradient-38);}.cls-46{fill:url(#linear-gradient-39);}.cls-47{fill:url(#linear-gradient-40);}.cls-48{opacity:0.1;fill:url(#linear-gradient-41);}.cls-49{fill:url(#linear-gradient-42);}.cls-50{fill:url(#linear-gradient-43);}.cls-51{fill:url(#linear-gradient-44);}.cls-52{fill:url(#linear-gradient-45);}.cls-53{fill:url(#linear-gradient-46);}.cls-54{fill:url(#linear-gradient-47);}.cls-55{fill:url(#linear-gradient-48);}.cls-56{fill:url(#linear-gradient-49);}.cls-57{fill:url(#linear-gradient-50);}.cls-58{fill:url(#linear-gradient-51);}.cls-59{fill:url(#linear-gradient-52);}.cls-60{fill:url(#linear-gradient-53);}.cls-61{fill:url(#linear-gradient-54);}.cls-62{fill:url(#linear-gradient-55);}.cls-63{fill:url(#linear-gradient-56);}.cls-64{fill:url(#linear-gradient-57);}.cls-65{fill:url(#linear-gradient-58);}.cls-66{fill:url(#linear-gradient-59);}.cls-67{fill:url(#linear-gradient-60);}.cls-68{fill:url(#linear-gradient-61);}.cls-69{fill:url(#linear-gradient-62);}.cls-70{fill:url(#linear-gradient-63);}.cls-71{fill:url(#linear-gradient-64);}.cls-72,.cls-73{fill:url(#linear-gradient-65);}.cls-74{fill:url(#linear-gradient-67);}.cls-75{fill:url(#linear-gradient-68);}.cls-76{fill:url(#linear-gradient-69);}.cls-77{fill:url(#linear-gradient-70);}.cls-78{fill:url(#linear-gradient-71);}.cls-79{fill:url(#linear-gradient-72);}.cls-80{fill:url(#linear-gradient-73);}.cls-81{fill:url(#linear-gradient-74);}</style><linearGradient id="linear-gradient" x1="302.87" y1="132.32" x2="584.51" y2="132.32" gradientUnits="userSpaceOnUse"><stop offset="0" stop-color="#444b8c"/><stop offset="1" stop-color="#26264f"/></linearGradient><linearGradient id="linear-gradient-2" x1="308.75" y1="132.32" x2="590.39" y2="132.32" gradientUnits="userSpaceOnUse"><stop offset="0" stop-color="#e38ddd"/><stop offset="1" stop-color="#9571f6"/></linearGradient><linearGradient id="linear-gradient-3" x1="329.34" y1="70.97" x2="547.87" y2="358.78" xlink:href="#linear-gradient-2"/><linearGradient id="linear-gradient-4" x1="-264.51" y1="650.39" x2="-247.15" y2="650.39" gradientTransform="matrix(-1, 0, 0, 1, -117.3, 0)" gradientUnits="userSpaceOnUse"><stop offset="0" stop-color="#d0d1d3"/><stop offset="1" stop-color="#ebeff2"/></linearGradient><linearGradient id="linear-gradient-5" x1="-165.11" y1="634.4" x2="-201.41" y2="587.09" gradientTransform="matrix(-1, 0, 0, 1, -117.3, 0)" gradientUnits="userSpaceOnUse"><stop offset="0" stop-color="#311944"/><stop offset="1" stop-color="#893976"/></linearGradient><linearGradient id="linear-gradient-6" x1="118.73" y1="537.19" x2="109.36" y2="405.09" gradientTransform="matrix(1, 0, 0, 1, 0, 0)" xlink:href="#linear-gradient-5"/><linearGradient id="linear-gradient-7" x1="102.87" y1="526.99" x2="264.95" y2="659.55" gradientTransform="matrix(1, 0, 0, 1, 0, 0)" xlink:href="#linear-gradient-5"/><linearGradient id="linear-gradient-8" x1="223.38" y1="1955.49" x2="240.74" y2="2008.46" gradientTransform="translate(1036.05 -1677.27) rotate(24.09)" gradientUnits="userSpaceOnUse"><stop offset="0" stop-color="#ffc444"/><stop offset="1" stop-color="#f36f56"/></linearGradient><linearGradient id="linear-gradient-9" x1="3876.4" y1="472" x2="3952.68" y2="295.73" gradientTransform="matrix(-1, 0, 0, 1, 4320.83, 0)" gradientUnits="userSpaceOnUse"><stop offset="0" stop-color="#444b8c"/><stop offset="1" stop-color="#3e4177"/></linearGradient><linearGradient id="linear-gradient-10" x1="689" y1="669.67" x2="716.59" y2="669.67" gradientTransform="matrix(-1, 0.09, 0.09, 1, 890.93, 6.21)" xlink:href="#linear-gradient"/><linearGradient id="linear-gradient-11" x1="238.94" y1="651.81" x2="251.04" y2="626.77" gradientTransform="matrix(-1, 0.07, 0.07, 1, 442.12, 69.3)" xlink:href="#linear-gradient-8"/><linearGradient id="linear-gradient-12" x1="374.99" y1="495.85" x2="404.3" y2="495.85" gradientTransform="matrix(-0.98, 0.21, 0.21, 0.98, 620.42, 165.86)" xlink:href="#linear-gradient"/><linearGradient id="linear-gradient-13" x1="246.44" y1="568.84" x2="258.8" y2="543.27" gradientTransform="matrix(-0.99, 0.15, 0.15, 0.99, 503.28, 135.26)" xlink:href="#linear-gradient-8"/><linearGradient id="linear-gradient-14" x1="-1436.6" y1="678.51" x2="-1514.76" y2="502.33" gradientTransform="translate(1823.51 81.17) rotate(3.06)" xlink:href="#linear-gradient-9"/><linearGradient id="linear-gradient-15" x1="-1448.72" y1="683.89" x2="-1526.88" y2="507.71" gradientTransform="translate(1823.51 81.17) rotate(3.06)" xlink:href="#linear-gradient-9"/><linearGradient id="linear-gradient-16" x1="-1816.42" y1="611.36" x2="-1894.58" y2="435.17" gradientTransform="translate(2078.39 -44.03) rotate(-3.98)" xlink:href="#linear-gradient-9"/><linearGradient id="linear-gradient-17" x1="106.9" y1="2367.21" x2="244.86" y2="2048.42" gradientTransform="translate(1036.05 -1677.27) rotate(24.09)" xlink:href="#linear-gradient-9"/><linearGradient id="linear-gradient-18" x1="-1938.29" y1="488.84" x2="-1818.78" y2="212.72" gradientTransform="translate(2142.02)" xlink:href="#linear-gradient-9"/><linearGradient id="linear-gradient-19" x1="-1952.09" y1="431.53" x2="-1946.54" y2="448.46" gradientTransform="translate(2142.02)" xlink:href="#linear-gradient-8"/><linearGradient id="linear-gradient-20" x1="-2029.86" y1="449.21" x2="-1910.36" y2="173.09" gradientTransform="translate(2142.02)" xlink:href="#linear-gradient-9"/><linearGradient id="linear-gradient-21" x1="-1916.32" y1="498.35" x2="-1796.82" y2="222.23" gradientTransform="translate(2142.02)" xlink:href="#linear-gradient-9"/><linearGradient id="linear-gradient-22" x1="-1173.87" y1="355.67" x2="-1170.8" y2="273.73" gradientTransform="translate(1453.59 521.98) rotate(26.56)" xlink:href="#linear-gradient-8"/><linearGradient id="linear-gradient-23" x1="4037.05" y1="255.47" x2="4067.83" y2="255.47" xlink:href="#linear-gradient-9"/><linearGradient id="linear-gradient-24" x1="-2171.79" y1="25.16" x2="-2172.75" y2="102.44" gradientTransform="matrix(1, -0.01, 0.01, 1, 2440.21, 205.6)" xlink:href="#linear-gradient-8"/><linearGradient id="linear-gradient-25" x1="4038.61" y1="265.69" x2="4064.61" y2="265.69" xlink:href="#linear-gradient-9"/><linearGradient id="linear-gradient-26" x1="-268.03" y1="96.68" x2="-266.95" y2="106.36" gradientTransform="matrix(-1, -0.05, -0.05, 1, 14.08, 155.31)" gradientUnits="userSpaceOnUse"><stop offset="0" stop-color="#ffc444"/><stop offset="1" stop-color="#f36f56"/></linearGradient><linearGradient id="linear-gradient-27" x1="4048.1" y1="303.2" x2="4064.83" y2="303.2" gradientTransform="matrix(-1, 0, 0, 1, 4320.83, 0)" gradientUnits="userSpaceOnUse"><stop offset="0" stop-color="#ff9085"/><stop offset="1" stop-color="#fb6fbb"/></linearGradient><linearGradient id="linear-gradient-28" x1="4046.48" y1="296.21" x2="4047.92" y2="364.7" xlink:href="#linear-gradient-27"/><linearGradient id="linear-gradient-29" x1="4035.12" y1="346.25" x2="4055.61" y2="346.25" xlink:href="#linear-gradient-27"/><linearGradient id="linear-gradient-30" x1="4803.72" y1="764.34" x2="4807.88" y2="702.44" gradientTransform="matrix(-1, 0, 0, 1, 4994.93, 0)" xlink:href="#linear-gradient-8"/><linearGradient id="linear-gradient-31" x1="4780.97" y1="753.4" x2="4784.59" y2="699.59" gradientTransform="matrix(-1, 0, 0, 1, 4994.93, 0)" gradientUnits="userSpaceOnUse"><stop offset="0.1" stop-color="#311944"/><stop offset="0.27" stop-color="#371b47"/><stop offset="0.48" stop-color="#462150"/><stop offset="0.72" stop-color="#612a5f"/><stop offset="0.97" stop-color="#853774"/><stop offset="1" stop-color="#893976"/></linearGradient><linearGradient id="linear-gradient-32" x1="4765.55" y1="716" x2="4798.84" y2="733.85" xlink:href="#linear-gradient-31"/><linearGradient id="linear-gradient-33" x1="4756.21" y1="778.16" x2="4761.09" y2="705.54" gradientTransform="matrix(-1, 0, 0, 1, 4994.93, 0)" xlink:href="#linear-gradient-8"/><linearGradient id="linear-gradient-34" x1="4720.85" y1="774.12" x2="4703.24" y2="613.13" gradientTransform="matrix(-1, 0, 0, 1, 4994.93, 0)" gradientUnits="userSpaceOnUse"><stop offset="0.1" stop-color="#311944"/><stop offset="0.69" stop-color="#6d2f66"/><stop offset="1" stop-color="#893976"/></linearGradient><linearGradient id="linear-gradient-35" x1="4801.15" y1="843.24" x2="4681.05" y2="776.36" gradientTransform="matrix(-1, 0, 0, 1, 4994.93, 0)" xlink:href="#linear-gradient-5"/><linearGradient id="linear-gradient-36" x1="4693.34" y1="751.14" x2="4728.84" y2="810.67" gradientTransform="matrix(-1, 0, 0, 1, 4994.93, 0)" xlink:href="#linear-gradient-5"/><linearGradient id="linear-gradient-37" x1="4785.08" y1="673.19" x2="4798.47" y2="852.97" xlink:href="#linear-gradient-34"/><linearGradient id="linear-gradient-38" x1="4765.44" y1="771.29" x2="4858.84" y2="843.25" gradientTransform="matrix(-1, 0, 0, 1, 4994.93, 0)" xlink:href="#linear-gradient-5"/><linearGradient id="linear-gradient-39" x1="4735.63" y1="763.64" x2="4777.64" y2="762" xlink:href="#linear-gradient-34"/><linearGradient id="linear-gradient-40" x1="4799.74" y1="889.73" x2="4786.61" y2="742.1" xlink:href="#linear-gradient-31"/><linearGradient id="linear-gradient-41" x1="4804.75" y1="911.08" x2="4784.2" y2="723.2" gradientTransform="matrix(-1, 0, 0, 1, 4994.93, 0)" xlink:href="#linear-gradient-5"/><linearGradient id="linear-gradient-42" x1="4812.3" y1="805.55" x2="4741.07" y2="768.32" gradientTransform="matrix(-1, 0, 0, 1, 4994.93, 0)" xlink:href="#linear-gradient-8"/><linearGradient id="linear-gradient-43" x1="4992.32" y1="722.98" x2="4736.71" y2="814.66" gradientTransform="matrix(-1, 0, 0, 1, 4994.93, 0)" xlink:href="#linear-gradient-8"/><linearGradient id="linear-gradient-44" x1="-465.29" y1="560.81" x2="-417.57" y2="661.1" gradientTransform="matrix(-1, 0, 0, 1, -117.3, 0)" xlink:href="#linear-gradient-8"/><linearGradient id="linear-gradient-45" x1="407.85" y1="516.92" x2="315.1" y2="590" gradientTransform="matrix(1, 0, 0, 1, 0, 0)" xlink:href="#linear-gradient-8"/><linearGradient id="linear-gradient-46" x1="-465.29" y1="554.74" x2="-417.57" y2="655.03" gradientTransform="matrix(-1, 0, 0, 1, -117.3, 0)" xlink:href="#linear-gradient-8"/><linearGradient id="linear-gradient-47" x1="404.89" y1="513.17" x2="312.15" y2="586.25" gradientTransform="matrix(1, 0, 0, 1, 0, 0)" xlink:href="#linear-gradient-8"/><linearGradient id="linear-gradient-48" x1="-465.29" y1="548.67" x2="-417.57" y2="648.96" gradientTransform="matrix(-1, 0, 0, 1, -117.3, 0)" xlink:href="#linear-gradient-8"/><linearGradient id="linear-gradient-49" x1="309.35" y1="532.54" x2="482.21" y2="655.27" gradientTransform="matrix(1, 0, 0, 1, 0, 0)" xlink:href="#linear-gradient-8"/><linearGradient id="linear-gradient-50" x1="-2242.11" y1="688.29" x2="-2197.2" y2="850.35" gradientTransform="translate(2858.42)" gradientUnits="userSpaceOnUse"><stop offset="0" stop-color="#40447e"/><stop offset="1" stop-color="#3c3b6b"/></linearGradient><linearGradient id="linear-gradient-51" x1="-2202.14" y1="802.87" x2="-2201.49" y2="748.2" gradientTransform="translate(2858.42)" xlink:href="#linear-gradient-8"/><linearGradient id="linear-gradient-52" x1="-2185.88" y1="672.71" x2="-2140.97" y2="834.77" xlink:href="#linear-gradient-50"/><linearGradient id="linear-gradient-53" x1="-2138.92" y1="803.62" x2="-2138.27" y2="748.95" gradientTransform="translate(2858.42)" xlink:href="#linear-gradient-8"/><linearGradient id="linear-gradient-54" x1="-2233.65" y1="627.04" x2="-2175.44" y2="627.04" gradientTransform="translate(2858.42)" xlink:href="#linear-gradient"/><linearGradient id="linear-gradient-55" x1="-2233.65" y1="627.04" x2="-2175.44" y2="627.04" gradientTransform="translate(2858.42)" xlink:href="#linear-gradient"/><linearGradient id="linear-gradient-56" x1="-2200.79" y1="635.35" x2="-2112.43" y2="635.35" gradientTransform="translate(2858.42)" xlink:href="#linear-gradient"/><linearGradient id="linear-gradient-57" x1="-2408.56" y1="385.93" x2="-2342.69" y2="452.97" gradientTransform="translate(2858.42)" xlink:href="#linear-gradient-8"/><linearGradient id="linear-gradient-58" x1="556.69" y1="121.29" x2="553.06" y2="470.01" gradientUnits="userSpaceOnUse"><stop offset="0" stop-color="#aa80f9"/><stop offset="1" stop-color="#6165d7"/></linearGradient><linearGradient id="linear-gradient-59" x1="675.78" y1="122.53" x2="672.15" y2="471.25" xlink:href="#linear-gradient-58"/><linearGradient id="linear-gradient-60" x1="-2168.41" y1="86.63" x2="-2172.04" y2="435.34" gradientTransform="translate(2858.42)" xlink:href="#linear-gradient-58"/><linearGradient id="linear-gradient-61" x1="736.95" y1="515.39" x2="737.25" y2="490.03" gradientTransform="matrix(1, 0, 0, 1, 0, 0)" xlink:href="#linear-gradient-5"/><linearGradient id="linear-gradient-62" x1="639.96" y1="282.92" x2="678.91" y2="347.65" gradientTransform="matrix(1, 0, 0, 1, 0, 0)" xlink:href="#linear-gradient-8"/><linearGradient id="linear-gradient-63" x1="-2189.37" y1="312.37" x2="-2212.95" y2="252.48" xlink:href="#linear-gradient-50"/><linearGradient id="linear-gradient-64" x1="1954.13" y1="298.71" x2="1935.75" y2="367.43" gradientTransform="matrix(-1, 0, 0, 1, 2608.57, 0)" xlink:href="#linear-gradient-8"/><linearGradient id="linear-gradient-65" x1="652.85" y1="331.23" x2="656.86" y2="340.39" gradientTransform="matrix(1, 0, 0, 1, 0, 0)" xlink:href="#linear-gradient-27"/><linearGradient id="linear-gradient-67" x1="622.33" y1="256.62" x2="652" y2="366.2" gradientTransform="matrix(1, 0, 0, 1, 0, 0)" xlink:href="#linear-gradient-27"/><linearGradient id="linear-gradient-68" x1="730.27" y1="551.71" x2="731" y2="490.66" gradientTransform="matrix(1, 0, 0, 1, 0, 0)" xlink:href="#linear-gradient-8"/><linearGradient id="linear-gradient-69" x1="755.06" y1="123.36" x2="751.43" y2="472.07" xlink:href="#linear-gradient-58"/><linearGradient id="linear-gradient-70" x1="799.78" y1="528.91" x2="784.16" y2="484.65" gradientTransform="matrix(-1, 0, 0, 1, 1469.59, 0)" xlink:href="#linear-gradient-50"/><linearGradient id="linear-gradient-71" x1="731.54" y1="464.79" x2="737.26" y2="504.36" gradientTransform="matrix(-1, 0, 0, 1, 1469.59, 0)" xlink:href="#linear-gradient-50"/><linearGradient id="linear-gradient-72" x1="845.03" y1="468.25" x2="814.57" y2="425" gradientTransform="matrix(-1, 0, 0, 1, 1469.59, 0)" xlink:href="#linear-gradient-50"/><linearGradient id="linear-gradient-73" x1="786.61" y1="539.83" x2="853.26" y2="404.44" gradientTransform="matrix(-1, 0, 0, 1, 1469.59, 0)" xlink:href="#linear-gradient-50"/><linearGradient id="linear-gradient-74" x1="754.05" y1="452.93" x2="900.47" y2="452.93" gradientTransform="matrix(-1, 0, 0, 1, 1469.59, 0)" xlink:href="#linear-gradient-50"/></defs><title>vector</title><g class="cls-1"><g id="Layer_2" data-name="Layer 2"><g id="Layer_1-2" data-name="Layer 1"><path class="cls-2" d="M867.21,374.22c-23.86-156.15-121.67-348-314.9-368.07,0,0-146.72-17.84-291.34,9.21C175.13,31.41,99.86,79.19,52.24,147.87S-11.29,300.29,8,380.12C20.55,432,29,485.65,26.7,538.93,22.65,631.67,25,718.23,115,773.54c80.36,49.38,181.49,92.93,278,100.56,65.57,5.18,139.1-3.2,202.3-20.28C917.3,766.83,891.06,530.37,867.21,374.22Z"/><path class="cls-3" d="M844.1,422.49l-24.84-3.26a201.85,201.85,0,0,0-4.58-35.3l23.05-9.65a12.81,12.81,0,0,0,6.84-16.72l-16.83-40.69A12.66,12.66,0,0,0,811.16,310L788,319.66a200,200,0,0,0-21.39-27.9l15.31-20A12.69,12.69,0,0,0,779.59,254L745,227.39a12.66,12.66,0,0,0-17.74,2.34l-15.41,20a197,197,0,0,0-32.27-13.21L683,211.4a12.55,12.55,0,0,0-10.81-14.16l-43.25-5.67a12.75,12.75,0,0,0-14.27,10.87l-3.54,25.33a198.76,198.76,0,0,0-34.54,4.58L567,208.72a12.56,12.56,0,0,0-16.47-6.84l-40.61,16.74a12.8,12.8,0,0,0-7.07,16.55l9.62,23.92a204.84,204.84,0,0,0-27.79,21.23l-20.42-15.83a12.77,12.77,0,0,0-17.85,2.36l-27.28,34.9a12.71,12.71,0,0,0,2.06,17.89l20.48,15.92a203.46,203.46,0,0,0-13.74,32.34l-26-3.41a13.08,13.08,0,0,0-14.52,11.06l-6.53,44A12.6,12.6,0,0,0,391.68,434l26.05,3.42a202.16,202.16,0,0,0,3.92,34.95l-24.45,10.2A13.21,13.21,0,0,0,390,499.53l16.29,41.4a12.61,12.61,0,0,0,16.69,7l24.47-10.25a201.4,201.4,0,0,0,21,28.23l-16.31,21.16a13.12,13.12,0,0,0,2.12,18.31l34.95,27.43a12.82,12.82,0,0,0,18.11-2.47l16.11-21A196.26,196.26,0,0,0,555.9,623l-3.67,26.25a12.89,12.89,0,0,0,11,14.69l44.13,5.79a13.11,13.11,0,0,0,14.55-11.34l3.56-26a200.3,200.3,0,0,0,35.27-4.65l9.68,24.06a12.7,12.7,0,0,0,16.79,7l41.16-17.44a13.23,13.23,0,0,0,7-17.11l-9.69-23.9a204.39,204.39,0,0,0,28.29-22L774.05,594a12.72,12.72,0,0,0,18-2.45l27-35.73a13.1,13.1,0,0,0-2.37-18.2l-19.94-15.45a203.29,203.29,0,0,0,13.53-33.23l24.92,3.26A12.8,12.8,0,0,0,849.45,481l5.65-44.14A12.83,12.83,0,0,0,844.1,422.49Zm-68.62,26.22c-11.63,87.63-91.63,149.82-178.63,138.41s-147.27-92-134.7-179.51c12.5-87,92.34-148,178.39-136.68S787,361.6,775.48,448.71Z"/><path class="cls-3" d="M405.76,172.06l-18.5-2.43a150.32,150.32,0,0,0-3.41-26.29L401,136.15a9.54,9.54,0,0,0,5.1-12.45L393.57,93.4a9.42,9.42,0,0,0-12.34-5.12L364,95.47A150.12,150.12,0,0,0,348,74.7l11.4-14.89a9.45,9.45,0,0,0-1.72-13.24L331.93,26.76a9.42,9.42,0,0,0-13.21,1.75l-11.48,14.9a147,147,0,0,0-24-9.84l2.56-18.72a9.34,9.34,0,0,0-8.06-10.54L245.5.08a9.51,9.51,0,0,0-10.63,8.1L232.24,27a148.18,148.18,0,0,0-25.72,3.41l-7.13-17.6a9.37,9.37,0,0,0-12.27-5.09L156.88,20.23a9.53,9.53,0,0,0-5.27,12.32l7.17,17.82a152.47,152.47,0,0,0-20.7,15.81L122.87,54.39a9.5,9.5,0,0,0-13.29,1.76l-20.32,26A9.48,9.48,0,0,0,90.8,95.47l15.25,11.85A151.7,151.7,0,0,0,95.82,131.4l-19.35-2.53a9.72,9.72,0,0,0-10.81,8.23l-4.87,32.79a9.39,9.39,0,0,0,8,10.76l19.4,2.54a150.43,150.43,0,0,0,2.92,26l-18.21,7.6a9.84,9.84,0,0,0-5.39,12.61l12.14,30.83a9.39,9.39,0,0,0,12.43,5.22l18.22-7.63a149.25,149.25,0,0,0,15.61,21L113.8,294.63a9.78,9.78,0,0,0,1.57,13.64l26,20.42a9.55,9.55,0,0,0,13.49-1.84l12-15.66a146.7,146.7,0,0,0,24.23,10.19l-2.73,19.55a9.59,9.59,0,0,0,8.16,10.94l32.86,4.31a9.76,9.76,0,0,0,10.84-8.45l2.66-19.4a147.6,147.6,0,0,0,26.26-3.47l7.21,17.93A9.47,9.47,0,0,0,288.89,348l30.65-13a9.86,9.86,0,0,0,5.22-12.75l-7.21-17.79a152.79,152.79,0,0,0,21.06-16.38l15,11.65A9.47,9.47,0,0,0,367,298l20.08-26.61a9.75,9.75,0,0,0-1.77-13.55l-14.85-11.51a151.7,151.7,0,0,0,10.08-24.75L399.08,224a9.54,9.54,0,0,0,10.66-8.31L414,182.79A9.56,9.56,0,0,0,405.76,172.06Zm-51.11,19.53c-8.66,65.26-68.24,111.57-133,103.08S111.94,226.15,121.3,161c9.31-64.78,68.77-110.2,132.86-101.79S363.26,126.71,354.65,191.59Z"/><path class="cls-4" d="M443.69,25.11c-30.67,0-59.05,7.47-82.17,20.14C326,64.71,302.87,96.46,302.87,132.32c0,20.36,7.45,39.4,20.41,55.62l-13.59,36.11a4.68,4.68,0,0,0,3.49,6.24h.1a3.39,3.39,0,0,0,.64.06,28.93,28.93,0,0,0,6.39,0c-.17-.32-.35-.65-.54-1,12.77-2.37,32.17-5.93,45.23-8.16,22.46,11.55,49.54,18.3,78.69,18.3,42.75,0,81.05-14.51,106.88-37.41,21.15-18.75,33.94-43.14,33.94-69.81C584.51,73.11,521.46,25.11,443.69,25.11Z"/><path class="cls-5" d="M590.39,132.32c0,26.67-12.79,51.06-33.94,69.81-25.83,22.9-64.13,37.41-106.88,37.41-29.16,0-56.23-6.75-78.69-18.3C356,223.78,333,228,320.8,230.3a4.68,4.68,0,0,1-5.23-6.25l13.58-36.11c-12.95-16.22-20.4-35.26-20.4-55.62,0-35.86,23.13-67.61,58.65-87.08,23.12-12.66,51.5-20.13,82.17-20.13C527.34,25.11,590.39,73.11,590.39,132.32Z"/><path class="cls-6" d="M556.45,202.13c-25.83,22.9-64.13,37.41-106.88,37.41-29.16,0-56.23-6.75-78.69-18.3C356,223.78,333,228,320.8,230.3a4.68,4.68,0,0,1-5.23-6.25l13.58-36.11c-12.95-16.22-20.4-35.26-20.4-55.62,0-35.86,23.13-67.61,58.65-87.08,18.58,2.53,34.7,9,44.5,21.95,21.54,28.54-2.76,68.58,19.73,88.84,22.33,20.1,58-8.71,90.49,4.94C534.32,166.09,546.85,177.55,556.45,202.13Z"/><path class="cls-7" d="M456.23,79a7.05,7.05,0,1,1-7-7.24A7.11,7.11,0,0,1,456.23,79Z"/><path class="cls-7" d="M455.15,58.11a6,6,0,0,1-6,6.06,6.1,6.1,0,0,1-6-6.16,6,6,0,0,1,6-6.06A6.1,6.1,0,0,1,455.15,58.11Z"/><path class="cls-7" d="M405.06,78.93a7.26,7.26,0,1,1-7.24-7.35A7.27,7.27,0,0,1,405.06,78.93Z"/><path class="cls-7" d="M434.62,136.75a1.43,1.43,0,0,0-1-.5l-71,1a1.56,1.56,0,0,0-1,.54,1.53,1.53,0,0,0-.38,1.12c1,15.34,17.41,27.2,37.27,26.76,19.64-.44,35.52-12.78,36.51-27.85A1.49,1.49,0,0,0,434.62,136.75Z"/><polygon class="cls-7" points="428.63 138.62 397.84 82.26 367.49 139.51 364.64 138.02 397.8 75.56 431.35 137.05 428.63 138.62"/><path class="cls-7" d="M504.71,79.13A6.86,6.86,0,1,1,497.86,72,7,7,0,0,1,504.71,79.13Z"/><path class="cls-7" d="M532.64,135.35a1.28,1.28,0,0,0-.94-.48l-67.07.94a1.42,1.42,0,0,0-1,.53,1.52,1.52,0,0,0-.37,1.08c1,14.9,16.45,26.44,35.21,26,18.56-.41,33.57-12.4,34.5-27.05A1.45,1.45,0,0,0,532.64,135.35Z"/><polygon class="cls-7" points="526.98 137.17 497.88 82.37 469.21 138 466.53 136.56 497.84 75.86 529.55 135.64 526.98 137.17"/><path class="cls-7" d="M496.36,79.89c0,1.51-.11,1.9-1.64,1.9l-92.13-.12c-1.61,0-4.42-.41-4.42-2v-.8c0-1.54,2.83-2.75,4.44-2.75l91.92.27c1.53,0,1.83,1.18,1.83,2.69Z"/><path class="cls-7" d="M450,177.25c0,2,.32,3.26-1.17,3.3l-.67,0c-1.49,0-2.48-1.19-2.48-3.18V60.92c0-2,1.64-4.28,3.13-4.26H449c1.49,0,.94,2.3.94,4.29Z"/><path class="cls-7" d="M433.79,185.34c0-8.73,6.91-12.45,15.4-12.65s15.27,3.14,15.27,11.79Z"/><path class="cls-7" d="M474.66,183.65a3.85,3.85,0,0,1-3.66,3.88l-45.59,1.32a3.67,3.67,0,0,1-3.76-3.72h0a3.92,3.92,0,0,1,3.76-3.93L471,180a3.6,3.6,0,0,1,3.66,3.67Z"/><ellipse class="cls-8" cx="138.53" cy="729.25" rx="78.05" ry="31.85"/><path class="cls-3" d="M60.48,725.52c0,16.61,35,30.07,78.05,30.07s78.06-13.46,78.06-30.07-35-43.78-78.06-43.78S60.48,708.91,60.48,725.52Z"/><path class="cls-8" d="M60.48,725.52c0-16.61,35-43.78,78.05-43.78a105.93,105.93,0,0,1,51.85,13.67,11.4,11.4,0,0,1,1.23,5.94c-.9,9.34-16.13,15.09-24.88,17-22,4.77-32.79-8.4-50.95-7.9-11.23.31-26.79,6-45.25,29.85C64.15,735.92,60.48,730.88,60.48,725.52Z"/><path class="cls-7" d="M134.26,696.82a17.61,17.61,0,0,0,8.77,0,5.63,5.63,0,0,0,4.18-5.49v-88H129.86v87.91A5.74,5.74,0,0,0,134.26,696.82Z"/><path class="cls-9" d="M134.26,696.82a17.61,17.61,0,0,0,8.77,0,5.63,5.63,0,0,0,4.18-5.49v-88H129.86v87.91A5.74,5.74,0,0,0,134.26,696.82Z"/><path class="cls-10" d="M230.24,566.33,193,542a88.68,88.68,0,0,0,1.88-52.7c-2.57-9.16-8.85-31.58-27.87-42.63-16.88-9.8-26.9-.85-82.62,3.8-37.28,3.1-45,.11-51.12,7.91-11.42,14.46,9.23,32,4.63,76.58-1.68,16.37-5.52,24.76-.57,36.62,5.76,13.79,19.12,21.44,29.5,25.74a151.07,151.07,0,0,0,62.57,20c48.08,4.22,84-16.41,96.32-24.3A15.88,15.88,0,0,0,236.47,581,14,14,0,0,0,230.24,566.33Z"/><path class="cls-11" d="M79,453.92c-18,.53-29.18.32-35.36,8.35-6.49,8.44.07,15.62,1.28,45.65,1.11,27.37-3.71,38.19,5.13,53.36a56.62,56.62,0,0,0,11.59,13.49c25.08,20.46,89.77,20.22,117-22.5,21.72-34.08,12.66-84.3-12.86-100.92C153.29,443.2,150.42,451.8,79,453.92Z"/><path class="cls-12" d="M232.17,551.28l-26.52-16.76s-71-23.35-136.72,9.57A21.82,21.82,0,0,0,57,563.62a15.66,15.66,0,0,0,9.62,14.45A142.63,142.63,0,0,0,131.3,602.2c49,5.38,85.53-17.08,96.32-24.3A15.9,15.9,0,0,0,238.4,566,14,14,0,0,0,232.17,551.28Z"/><path class="cls-13" d="M437.43,236l-.57-8.33s-3-2.15-3.43-5.16l-.44-3s.36-2.8,4.26-4.27a3,3,0,0,0,1.84-1.95c.77-2.72,2.36-8.29,2.8-9.7a6.34,6.34,0,0,1,1.9-2.49.74.74,0,0,1,1.22.66l-1.85,11.83s2.56.45,2.48,2.73a5.57,5.57,0,0,1,.83,4.27,57.15,57.15,0,0,1-3.15,7l0,8.51Z"/><path class="cls-14" d="M290.57,317.56a32.05,32.05,0,0,1,43.28-21.86c26.74,11,55.54,8.24,74.78-7.19,23.61-19,24.52-50.35,24.6-55.78l14.14.29c2.73,8.31,19.08,60.8-10.32,103.48-34.36,49.86-115.3,65.63-140.9,35.1C284.58,357.81,285.88,336.45,290.57,317.56Z"/><path class="cls-15" d="M239,730.93c-1.43,1.31-1.52,4.39-1.58,6.39a4.85,4.85,0,0,0,.08,1.66c.86,2.25,5.34,2.22,12.37,2.51,11.12.46,14.46,1.13,15.23-.57s-1.4-4-1.64-4.26c-1.28-1.42-2.77-1.88-5.64-2.63-5.32-1.4-8.9-2.13-10-2.35C241,730.31,239.9,730.06,239,730.93Z"/><path class="cls-16" d="M246.76,719.84l.43,12.66c-.35.59-4.19,2.21-7.08.49l-2.18-12.54Z"/><path class="cls-17" d="M332.61,729.18c-1.91,1.89-2.52,5.54-1.05,7.44s3.84.65,10.41,1.19c7,.59,8.79,2.35,13.65,1.29,2-.43,5.45-1.55,5.46-2.93,0-1-1.71-1.57-7.41-3.83-8.1-3.2-8.06-3.35-9.8-3.74C339.51,727.64,335.13,726.67,332.61,729.18Z"/><path class="cls-18" d="M337.74,717.92l2.91,12c-.3.62-4,2.53-7,1L329,719.21Z"/><path class="cls-19" d="M320.08,458.7A1104.38,1104.38,0,0,0,341,721.53l-13.72,2.92c-10.87-11.29-24.41-28.85-30.11-53-3.54-15-1.69-22.46-3.47-40.72-2.82-29.09-10.86-44.67-18.76-68.43-7.09-21.34-15.16-52.54-18.18-93.83Z"/><path class="cls-20" d="M313.76,643.52c-5-19.95-14.74-25.22-15.09-44.06-.24-13.32,4.55-14.41,4.23-27.16-.48-19.33-11.81-29.47-17.5-41.64-6-12.85-8.32-33.48,7.88-67.81l-36.57,5.66c3,41.29,11.09,72.49,18.18,93.83,7.9,23.76,15.94,39.34,18.76,68.43,1.78,18.26-.07,25.76,3.47,40.72,5.7,24.11,19.24,41.67,30.11,53l3.49-.75c-11.75-14-15.9-26.56-17-36.72C312.05,670.44,318.84,663.64,313.76,643.52Z"/><path class="cls-21" d="M274.35,456.23q-8.16,75.18-15,153.2-5.07,58.56-9,115.65l-13.91,1a161.16,161.16,0,0,1-12.43-38c-3.87-20-2.1-31.65-3.17-52.21-1.2-23.06-4.45-28.24-9.13-57.5-9.51-59.38-14.26-89.07.82-106.57C217.42,466.11,232.57,452,274.35,456.23Z"/><path class="cls-22" d="M454.18,283.71A45.34,45.34,0,0,1,445,296.44c-11.67,11.25-29.32,15.37-33.47,32-2.07,8.3.94,12.88-3.28,17.71-6,6.83-15.85,2-30.53,6.18-13,3.73-16.86,10.86-24.73,15.39-10.66,6.14-29.29,7.78-64.25-11a37,37,0,0,0,7.37,14.92c25.6,30.53,106.54,14.76,140.9-35.1C448.89,319.31,453.3,300.55,454.18,283.71Z"/><path class="cls-23" d="M154.25,300.4a303.57,303.57,0,0,1,110-16,300.44,300.44,0,0,1,68.81,10.93q3.75,20.92,7.49,41.85a500.09,500.09,0,0,1-.82,55.32c-1.57,22.38-3.11,22.72-6.71,54.31-5.87,51.52-3.41,65-13.76,71.17-6.74,4-9.17-.83-43.54-4.24-23-2.28-34.8-3.34-46.47.6-15.89,5.38-21.21,14.41-27.77,11.47-6.28-2.82-7.08-13.67-7.84-32.59-1.17-29.19-1.1-49-1.21-56.13-.49-32.58-8.74-57.46-19.31-89.32A430.44,430.44,0,0,0,154.25,300.4Z"/><path class="cls-24" d="M177.36,437.14l8.3-.47s9.08-7.6,13.22-7.12A35.43,35.43,0,0,1,210,433.49c.76.6-2.26,4-5.28,3.65s-9.75,1.3-10.95,4-6.43,4.26-7.32,2.7L175.25,446Z"/><path class="cls-25" d="M179.87,434.24c.58,6.8-.9,11.42-3.37,14.59-11,14-48.21,8.3-70.35-10.51C89.76,424.39,81.08,402.77,81.4,383.4c.63-37.81,35.66-74.85,87.78-87.65l23.14,69.18c-32.13.49-51.65,24.71-48.75,42C145.72,419.82,160.74,431.4,179.87,434.24Z"/><path class="cls-26" d="M305.92,501.09C289,493.88,289.11,479,273.33,472.72c-22.53-8.89-47.42,11.76-51.3,6-4.05-6,25.68-24.23,21.72-42.25-3.14-14.32-23.89-11.78-35-31.39-10.55-18.59-.32-35.78-9.66-42.24-3.35-2.32-9.25-3.24-20.45,1.69,7.81,24.38,13.41,45.89,13.81,72.54.11,7.1,0,26.94,1.21,56.13.76,18.92,1.56,29.77,7.84,32.59,6.56,2.94,11.88-6.09,27.77-11.47,11.67-3.94,23.43-2.88,46.47-.6,34.37,3.41,36.8,8.27,43.54,4.24,4.38-2.62,6.47-6.56,7.86-14.13A42.14,42.14,0,0,1,305.92,501.09Z"/><path class="cls-7" d="M231.78,284.84c0,7.07,10.53,31.07,28.69,66.11,5,9.71,11,20.34,17.3,31.81a201.54,201.54,0,0,0,7.93-21.56h0c9.7-38.21,3.95-69.69,2.76-74.26-.11-.39-1.55-.74-1.55-.74C265.39,279.08,237.53,283.08,231.78,284.84Z"/><path class="cls-27" d="M261.18,252.14a96.22,96.22,0,0,1-2.73,19c-1.27,5-2.05,6.32-3,7.34-1.45,1.53-3.6,2.77-15.49,5.05-6.47,1.24-7.29,1.16-7.46,1.78-.86,3.06,16,14.52,34.12,12.94,11.09-1,21.44-6.71,21-10s-11.53-2.16-14.49-8.34c-2.06-4.3.82-10.09,4.1-14.84C274.58,259.43,263.81,257.78,261.18,252.14Z"/><path class="cls-28" d="M281.44,256.47a11.6,11.6,0,0,0,.47-13.3c-2.4-3.42-6.43-4.1-8.84-4.51-7-1.19-16,1.27-19.45,7.58-2,3.74,1.49,11.92,2,13.39.61,1.66,1.85,2.28,3,3.57,1.54,1.78,3.95,4.62,7.88,9.36a29.12,29.12,0,0,1,1.85-4.68,25.43,25.43,0,0,1,3.64-5.43C275.9,258.17,278.8,259.61,281.44,256.47Z"/><path class="cls-29" d="M260.76,268.45s4.22,7.83,13.45,7.72c8.28-.1,10.47-18.52,5.42-22.72-1.69-1.4-5.18-2.13-8.08-1.48-1.72.38-2.33,1.05-5.14,1.62-2.6.53-3.3.21-4.11.82-1,.76-1.83,2.72-.5,8.2-1.49-1.67-3.34-2.38-4.71-1.82a2.79,2.79,0,0,0-1.16,1C254.67,263.85,256.45,266.65,260.76,268.45Z"/><path class="cls-30" d="M262,253.28c.39.32-.91,1.74-1.11,3.83-.39,4.07,3.47,9.18,7.65,9.82,2.48.37,3.24-1.09,7.38-1.3a18.77,18.77,0,0,1,6,.66c1.05,4.54-.4,8.93-3.5,10.84-3.34,2.05-7.37.48-9.06-.17-1.13-.44-4.74-1.84-6.49-5.32s.27-5.64-1.91-8.14c-1.09-1.27-2.59-1.87-3.95-4.27a10.92,10.92,0,0,1-.75-1.61C258.47,255.48,261.43,252.82,262,253.28Z"/><path class="cls-31" d="M278.8,267.79a10,10,0,0,1-4.9.5c-.15,0-.32,0-.34.09-.09.29,1.82,1.7,3.66,1.29,1.31-.29,2.38-1.46,2.22-1.78C279.38,267.75,279.09,267.75,278.8,267.79Z"/><path class="cls-32" d="M272.73,297.41l-2,11.58h-8.08L256,298.05S271.4,298.63,272.73,297.41Z"/><path class="cls-33" d="M260.47,351c1.52,2.93,3.1,6,4.74,9.06,3.77,7.16,8.18,14.75,12.56,22.75a201.54,201.54,0,0,0,7.93-21.56h0l-14.44-51.46-.39-.82c0-.07-.12-.13-.15-.2-1-2.26-8,0-8,0Z"/><path class="cls-34" d="M265.21,360c3.77,7.16,8.18,14.75,12.56,22.75a201.54,201.54,0,0,0,7.93-21.56h0l-14.44-51.46c-1.41.31-4.69,1.81-4.28,8.82.53,9,10.15,25,4.71,31.38A51.94,51.94,0,0,0,265.21,360Z"/><path class="cls-35" d="M441.86,746.43h-.11a1.2,1.2,0,0,1-1.09-1.19V499a1.2,1.2,0,0,1,2.4,0V732.24l42.25-227.17a1.2,1.2,0,0,1,2.36.44L443,745.45A1.2,1.2,0,0,1,441.86,746.43Z"/><path class="cls-35" d="M674.81,753.61a1.2,1.2,0,0,1-1.18-1l-39.15-235.8a1.2,1.2,0,0,1,2.37-.4l36.76,221.47V517.46a1.2,1.2,0,0,1,2.4,0V752.41a1.2,1.2,0,0,1-1.1,1.2Z"/><path class="cls-35" d="M101.14,831.36H101a1.21,1.21,0,0,1-1.08-1.19v-259a1.2,1.2,0,1,1,2.4,0V818.69l52.25-247.45a1.19,1.19,0,0,1,1.42-.92,1.2,1.2,0,0,1,.93,1.42L102.32,830.41A1.21,1.21,0,0,1,101.14,831.36Z"/><path class="cls-35" d="M372.85,876.59a1.19,1.19,0,0,1-1.17-1L311.8,581.07a1.19,1.19,0,1,1,2.34-.47l57.51,282.88V615.42a1.2,1.2,0,0,1,2.4,0v260a1.21,1.21,0,0,1-1.08,1.2Z"/><path class="cls-8" d="M98.71,568.05v4.46l274.76,44.82,303.82-98.88V514C629.71,500,98.71,568.05,98.71,568.05Z"/><polygon class="cls-7" points="424.97 490.87 98.72 568.05 373.47 612.87 677.29 513.99 424.97 490.87"/><path class="cls-36" d="M193.45,707.58s-10.26,2.19-11.26,19.34c1.67.05,5.57.62,5.57.62s-.77-12.62,6.51-14.23A30.09,30.09,0,0,1,193.45,707.58Z"/><path class="cls-37" d="M230.86,710.82q-.44,4.66-.85,9.31c-5-2-10.45-4.22-16.35-5.19a72.64,72.64,0,0,0-21.07-.4,8.09,8.09,0,0,1-1.16-3,9.54,9.54,0,0,1,.43-4.93,59.92,59.92,0,0,1,10.45-1.6C213,704.3,222.64,707.3,230.86,710.82Z"/><path class="cls-38" d="M231.3,713.59c0-1.13-.07-2.56-.44-2.77s-.83.78-1,1.32a9.19,9.19,0,0,0-.42,2.6,14.36,14.36,0,0,0,.15,4.24c.09.44.23,1.1.46,1.15s.34-.36.58-1.13A17.76,17.76,0,0,0,231.3,713.59Z"/><path class="cls-39" d="M240.24,734.28c-2.08.17-7.15.81-7.15.81s3.43-10.52-2.76-16.28a11.65,11.65,0,0,1-.09-3.75,10.51,10.51,0,0,1,.77-2.8C233.66,714.12,239.37,720,240.24,734.28Z"/><path class="cls-40" d="M282.79,741.82s-.1-5.67-8.65-6.62c-1.38.88-1.55,5.5-1.55,5.5Z"/><path class="cls-41" d="M287.22,849.47l-22.86,11.79-12.82-52.8,24.69-69.41,6.56,2.77,6.95,102.5A5.27,5.27,0,0,1,287.22,849.47Z"/><path class="cls-42" d="M251.54,808.46l24.69-69.41,6.56,2.77c-1.8,6.27-2.85,16.62-3.36,22.36-2.17,24.2-7.45,30.4-5.39,47.36,1.7,14,6.1,16.23,5.47,25.35-.69,9.88-6.57,17.63-13.47,23.5l-1.68.87Z"/><polygon class="cls-43" points="276.23 739.05 144.78 724.54 126.29 837.83 264.36 861.26 276.23 739.05"/><g class="cls-44"><path class="cls-45" d="M144.78,724.54l45,5a95.2,95.2,0,0,0,3.92,10c19.61,42.49,63.74,51.95,62.83,58.32-1.36,9.47-100.39-14.12-102.77-.89-1.14,6.34,20.13,22.93,42,30.43,25.82,8.88,44.75,2.5,57,18.06a36.31,36.31,0,0,1,6.66,14.92l-133-22.49Z"/></g><path class="cls-46" d="M274.14,735.2a10.05,10.05,0,0,1,5.64,1.8,11,11,0,0,1,1.23,1.07l-1-.49a3.84,3.84,0,0,0-4.76,1.36c-1.08,2-1.57,6.84-1.85,9.23-.8,6.76-5.67,48.26-5.67,48.26-.37,3.45-3,5.83-6,5.46L141.46,783.55a4.9,4.9,0,0,1-2.64-1.18,6.3,6.3,0,0,1-2.08-5.68l5.31-51c.49-3,2.75-4.87,5.42-4.57Z"/><path class="cls-47" d="M272.86,735.06a17.53,17.53,0,0,1,5.07.89,6.12,6.12,0,0,1,1.69.93s-4-1.47-5.66,1.92c-1,2.07-1.57,6.84-1.85,9.23-.8,6.77-5.65,48.27-5.65,48.27-.36,3.46-3,5.83-6,5.47L138.84,787a5,5,0,0,1-2.65-1.17,6.29,6.29,0,0,1-2.08-5.67l6.6-54.64c.48-3,2.75-4.88,5.42-4.58Z"/><path class="cls-48" d="M134.11,780.2l6.6-54.64c.48-3,2.75-4.88,5.42-4.58l126.73,14.08a17.53,17.53,0,0,1,5.07.89,6.12,6.12,0,0,1,1.69.93s-4-1.47-5.66,1.92a9.11,9.11,0,0,0-.43,1.17c-11.79-.81-23.6-2.46-35.48-3-23.62-1-47.68-3.69-70.23,3.83-7.22,2.4-12,13.28-10,18.73,1.46,3.92,6.27,4.12,8,9.22,1.82,5.35-2.36,8.42-.55,12.2,1.89,4,7.47,2.73,16.54,6.32A48.48,48.48,0,0,1,193,793.6L138.84,787a5,5,0,0,1-2.65-1.17A6.29,6.29,0,0,1,134.11,780.2Z"/><path class="cls-49" d="M193.23,802.4l15.17,5.17,1.6.29a2.72,2.72,0,0,0,3.07-2.83l.75-17.59a3.53,3.53,0,0,0-2.82-3.75l-1.61-.19-15.36.44c-1.47-.17-2.71-1.1-2.77.67l-.59,16.58C190.61,802.94,191.77,802.14,193.23,802.4Z"/><path class="cls-50" d="M192.08,804.73l16.8,3a2.72,2.72,0,0,0,3.08-2.83l.74-17.59a3.54,3.54,0,0,0-2.82-3.76l-17-2c-1.47-.18-2.72,1.13-2.78,2.9l-.58,16.58A3.52,3.52,0,0,0,192.08,804.73Z"/><path class="cls-51" d="M424.56,573,310.09,555.74a10.62,10.62,0,0,0-3.73.12l-44.56,9.51a2.88,2.88,0,0,0,.12,5.66L369.48,589.2a3,3,0,0,0,1.11,0L424.7,577A2.05,2.05,0,0,0,424.56,573Z"/><path class="cls-52" d="M424.56,569.68,310.09,552.44a10.39,10.39,0,0,0-3.73.11l-44.56,9.51a2.88,2.88,0,0,0,.12,5.66l107.56,18.17a3,3,0,0,0,1.11,0L424.7,573.7A2,2,0,0,0,424.56,569.68Z"/><path class="cls-53" d="M424.56,566.91,310.09,549.67a10.39,10.39,0,0,0-3.73.11l-44.56,9.51a2.89,2.89,0,0,0,.12,5.67l107.56,18.17a3,3,0,0,0,1.11,0l54.11-12.16A2.05,2.05,0,0,0,424.56,566.91Z"/><path class="cls-54" d="M424.56,563.6,310.09,546.36a10.39,10.39,0,0,0-3.73.12L261.8,556a2.88,2.88,0,0,0,.12,5.66l107.56,18.17a3,3,0,0,0,1.11,0l54.11-12.16A2.05,2.05,0,0,0,424.56,563.6Z"/><path class="cls-55" d="M424.56,560.84,310.09,543.6a10.39,10.39,0,0,0-3.73.11l-44.56,9.51a2.88,2.88,0,0,0,.12,5.66l107.56,18.17a3,3,0,0,0,1.11,0l54.11-12.16A2,2,0,0,0,424.56,560.84Z"/><path class="cls-56" d="M424.56,557.53,310.09,540.29a10.39,10.39,0,0,0-3.73.11l-44.56,9.51a2.88,2.88,0,0,0,.12,5.66l107.56,18.17a2.6,2.6,0,0,0,1.11,0l54.11-12.15A2.05,2.05,0,0,0,424.56,557.53Z"/><path class="cls-57" d="M660.56,780.16s2.14,8.68,2.21,11.83-34.54,7.52-35.08,5.21,5.26-6.54,9.44-8.2,16.45-6.17,16.45-6.17Z"/><path class="cls-58" d="M651.43,772.07l2,10.85s4.25,2.34,7.64,0l.82-12Z"/><path class="cls-59" d="M723.68,789.45s2.14,8.68,2.21,11.83-34.54,7.53-35.08,5.21,5.25-6.53,9.44-8.19,16.45-6.18,16.45-6.18Z"/><path class="cls-60" d="M714.54,781.36l2,10.85s4.25,2.34,7.64,0l.82-12.05Z"/><path class="cls-61" d="M634.85,486.05q-5,12.7-10.09,25.39c.5,46.71,2.94,97.35,8.3,151.29,4,40.13,9.18,78,15.13,113.52l16.27-2c6.62-16.26,14-40.67,12.53-70-1.55-30.55-11.11-33.85-12.86-63.08-2.27-37.89,12.78-49.25,17.58-95.42a244.47,244.47,0,0,0-2.6-67.92Z"/><path class="cls-62" d="M679.11,477.82l-23.9,4.45c-12.45,26.33-14.39,52.85-10.92,64.23,4.9,16.11,14.82,20.6,15.62,37.1.79,16.33-8.47,21.32-13,41-3.15,13.63-1.06,25.76,3.26,49.47,8.68,47.75,21.48,61.54,13,78.1-2.4,4.71-7,10.45-16.4,15.31.47,2.93,1,5.87,1.43,8.77l16.27-2c6.62-16.26,14-40.67,12.53-70-1.55-30.55-11.11-33.85-12.86-63.08-2.27-37.89,12.78-49.25,17.58-95.42A244.47,244.47,0,0,0,679.11,477.82Z"/><path class="cls-63" d="M657.63,499c10.83,40.49,21,83.95,29.94,130.18C698.36,685,706,737.81,711.22,787l18-.93c19.81-48.46,18.72-80.16,13.68-100.45-1.94-7.82-6.74-23.07-9.41-46.22-1.87-16.14-1.82-28.54-1.72-43.45.23-32.69,3.09-40.05,1.6-64.92-1.41-23.34-2.26-35.14-9.46-41.49C704.9,472.82,661,497.1,657.63,499Z"/><path class="cls-64" d="M488.82,403.08s-15.85-1.36-18.14-3.93-5.78-6.69-6.12-9-3.41,1.16-.63,6.27-5.1,4-6.33,3.9c-2.82-.28-13.61-.6-13.29.07s-1.29,3.62,6.37,7.09c6.7,3,14.68,1.06,19,1.27l4.36.2,11.55.88Z"/><path class="cls-65" d="M476,398.75l-1.74,13.16c8.71,7.27,28,21.2,54.78,23.29,47.26,3.69,94.12-31.28,102.84-70.62,4.32-19.48.79-46.81-11.31-51.2-3.36-1.22-8.41-1.05-18.82,5.94C574,338,571.65,362.49,556.3,379.06,545.26,391,523.55,403.08,476,398.75Z"/><path class="cls-66" d="M620.86,520.14c-6.49-9,0-18.78.16-36.91.22-20.54-7.91-23.31-18.39-56.49-7-22.07-13.66-43.25-9.76-69,1.87-12.34,5-33.26,21.24-44.54,8.36-5.82,20.37-6.27,44.06-6.93,29.3-.81,44-1.21,55.29,3.64,1.66.71,36.19,16.06,40.82,45.23,4.72,29.68-27.49,36.3-28.63,76.47-.52,18,5.16,45.26,8.84,62.91,3.53,17,5.37,21.22,2.41,26.67-7.15,13.15-32.37,11.59-82.82,8.46C634.3,528.44,625.7,526.89,620.86,520.14Z"/><path class="cls-67" d="M689.85,428c2.73,7.6,10.78,12.79,17.57,31.24,1.47,4,11.91,32.37,2,40.36-5.75,4.61-11.84-2.77-26.68-2.61-25.73.28-36.19,22.76-53.37,18.23-3-.79-7-2.65-11.21-7.34-.4,4.56,0,8.46,2.75,12.22,4.84,6.75,13.44,8.3,33.22,9.52,50.45,3.13,75.67,4.69,82.82-8.46,3-5.45,1.12-9.72-2.41-26.67-3.68-17.65-9.36-44.87-8.84-62.91,1.14-40.17,33.35-46.79,28.63-76.47a46.44,46.44,0,0,0-9.19-20.69C705.17,354.47,681.27,404.18,689.85,428Z"/><path class="cls-68" d="M740.28,487.52s-9.51-2.56-7.7.76a10.18,10.18,0,0,0,5.48,4.43S745.59,491.08,740.28,487.52Z"/><path class="cls-69" d="M628.52,313c0-1.83,6.39-2.61,11.43-5,6.38-3.07,9.15-16.82,7.52-22.82S657,276,657,276s1.34,11.11,5.29,19.17c3.57,7.3,19.68,11.06,23,12.47.54.24.73,1.36.68,1.36h0s0-.31,0-.27c-.1.49-.54.92-1.27,1.56-3.35,4.23-13.57,15-34.87,22.45C637,324.38,628.26,317.89,628.51,313Z"/><path class="cls-70" d="M642.19,274c-5.26-4.4-6-4.9-6.64-6.51-2.66-6.47,1.76-16,8.33-18.75.34-.14,4.75-1.95,6.64-.13,1.6,1.55-.38,4,.91,7.16,1.2,2.94,3.83,2.95,9,6.51,4.25,2.93,6.88,4.75,7.68,7.55,1.65,5.77-4.76,14.83-11.06,15.1C654.76,285,654.05,283.91,642.19,274Z"/><path class="cls-71" d="M656.48,285.88s-4.7,6.27-12.74,5c-7.2-1.17-6.7-17.52-1.74-20.52a9.22,9.22,0,0,1,7.24-.24c1.45.56,1.89,1.23,4.27,2.1,2.19.8,2.85.61,3.47,1.25.78.79,1.24,2.6-.64,7.22,1.52-1.27,3.23-1.65,4.35-1a2.48,2.48,0,0,1,.87,1C662.4,282.67,660.48,284.87,656.48,285.88Z"/><path class="cls-72" d="M661.08,328.06s-4.59,13-7.74,13.18a53.39,53.39,0,0,0-5.45.63s-4.72-13.57-4.74-13.64c.31.91,4.71.66,5.45.66C652.79,328.94,656.92,328.38,661.08,328.06Z"/><path class="cls-73" d="M661.08,328.06s-4.59,13-7.74,13.18a53.39,53.39,0,0,0-5.45.63s-4.72-13.57-4.74-13.64c.31.91,4.71.66,5.45.66C652.79,328.94,656.92,328.38,661.08,328.06Z"/><path class="cls-74" d="M654.83,340.34s7,78.6,31.54,91.18c-.63,2.51,0,23,0,23s-22.87-6.89-24.18-6.43-27.7-43.3-14.3-106.18Z"/><path class="cls-75" d="M746.94,488.75l-.27-6.14-7.83,5.94A19.36,19.36,0,0,0,728.06,483c-6.15-.85-12.92,1.61-12.93,3.55,0,1.55,4.34,2.77,5,3l.83.21c-1.89,1.3-2.77,2.87-1.22,4.68,4.81,5.63,19.11.47,19.62.34h0C742.73,493.78,746.55,489.23,746.94,488.75Z"/><path class="cls-76" d="M713.61,376.3c-7.12-13.83-13-35.39-6.19-68.67,64.11,19.51,100.46,75,91.77,122-7.16,38.76-42.8,60.21-50.76,64.76l-6.84-12.69c8.74-11.46,18.29-28.12,15.31-46C752.78,410.89,728,404.28,713.61,376.3Z"/><polygon class="cls-77" points="624.42 475.52 753.56 473.6 719.22 490.17 624.09 483.94 624.42 475.52"/><path class="cls-78" d="M758.12,477h0a5.75,5.75,0,0,1-3.79,5.4l-41.26,16.18-.19-11.22,40.68-13.79A3.57,3.57,0,0,1,758.12,477Z"/><path class="cls-79" d="M709.46,408.71l9.1,82.87c.31,2.86-3.69,7.12-6.56,7l-133.54-8.2a4.68,4.68,0,0,1-4.39-3.88l-16.76-80.05c-.5-2.91,4.74-5.92,7.69-5.84l139.93,3.94A4.68,4.68,0,0,1,709.46,408.71Z"/><path class="cls-80" d="M706.4,411.12,715.51,494a4.69,4.69,0,0,1-4.88,5.19l-135.22-6.4A4.69,4.69,0,0,1,571,488.9L557.2,408.49A4.68,4.68,0,0,1,562,403L701.88,407A4.68,4.68,0,0,1,706.4,411.12Z"/><path class="cls-81" d="M627,473.37c11.81-5,7.64-14.55,21.59-26.44,18.39-15.69,37.14-8.89,43.7-21,2-3.79,3-9.68-.54-19.22l10.13.28a4.68,4.68,0,0,1,4.52,4.17L715.51,494a4.69,4.69,0,0,1-4.88,5.19l-135.22-6.4A4.69,4.69,0,0,1,571,488.9l-1.91-11.09a51,51,0,0,1,14.73-5.52C603.68,468.26,613.41,479.13,627,473.37Z"/></g></g></g></svg>