<svg xmlns="http://www.w3.org/2000/svg" viewBox="0 0 380.42 140.4"><defs><style>.cls-1{fill:#fff;}</style></defs><title>logo-white</title><g id="Layer_2" data-name="Layer 2"><g id="Layer_1-2" data-name="Layer 1"><g id="Layer_2-2" data-name="Layer 2"><g id="Layer_1-2-2" data-name="Layer 1-2"><path class="cls-1" d="M195.42,59.41q-4,0-8.06.28L173.52,30l-.71-1.52h0a4.75,4.75,0,0,0-7.76,0H165l-.21.48V29l-.19.42L132.25,98.7l-.28.6a69.32,69.32,0,1,1-13-77.95c.29.3.59.61.87.92h0A8.47,8.47,0,1,1,107,33.34h0a52.39,52.39,0,1,0,9.5,59.07c.23-.46.44-.93.65-1.39h0l5.76-12.35,32.46-69.6.7-1.53h0a14.65,14.65,0,0,1,21-5,14.82,14.82,0,0,1,4.7,5.34l.51,1L206,59.78c-3.1-.24-6.23-.38-9.39-.38Zm43,49.91-.31.67-.48,1h0a4.68,4.68,0,0,1-8.1-1.08h0l-16.9-36.25a110.1,110.1,0,0,0-17.75-3.11l-2.45-.2,27,57.84,2.1,4.5a14.93,14.93,0,0,0,24.89-.41h0l1.67-3.58h0l15.41-33c-4.41-2.71-9.32-5.52-14.8-8.27ZM302,12.93l.7-1.51a8.47,8.47,0,0,0-15.63-6.49,2,2,0,0,0-.1.21l-30.78,66q8.54,2.82,16,5.8Z"/><path class="cls-1" d="M230.18,75.51c-8.13-2.9-19.58-7.2-35-8.59-14.64-1.31-31.24-1.17-45.51,2.66a184.87,184.87,0,0,1,45.83-6.47c17.52-.18,34.71,3.82,51.44,8.94,16.45,5,32.75,11.09,47.63,19.83a128.44,128.44,0,0,1,20.86,15.26c5.51,5,10.64,11.17,17.66,14a18.69,18.69,0,0,0,8.09,1.42c9.52-.51,22.09-9.18,22.09-22.09a22.6,22.6,0,0,0-18-21.61,52,52,0,0,0-5.28-.59,45.19,45.19,0,0,1-11.3-1.93A39,39,0,1,1,363,7.08,39.62,39.62,0,0,1,377.29,24.7a8.65,8.65,0,0,1-14.76,8.62c-1.2-1.59-1.72-3.61-2.81-5.29a22.66,22.66,0,0,0-3.58-4.3,22.19,22.19,0,0,0-9.85-5.33,22.72,22.72,0,0,0-5.26-.62,22.18,22.18,0,0,0-7.09,43.15,31.5,31.5,0,0,0,7.28,1.1,64.68,64.68,0,0,1,7.09.84A39.08,39.08,0,0,1,341,140.4,42.86,42.86,0,0,1,330.57,139a44.91,44.91,0,0,1-12.69-5.71c-6.78-4.41-12.42-11.51-18.71-16.73a230.05,230.05,0,0,0-21.05-15.7C267.41,93.63,252.12,83.34,230.18,75.51Z"/></g></g></g></g></svg>