<svg xmlns="http://www.w3.org/2000/svg" xmlns:xlink="http://www.w3.org/1999/xlink" viewBox="0 0 380.42 193.98"><defs><style>.cls-1{fill:url(#linear-gradient);}.cls-2{fill:url(#linear-gradient-2);}.cls-3{fill:#676766;}</style><linearGradient id="linear-gradient" x1="371.53" y1="141.82" x2="28.22" y2="14.5" gradientUnits="userSpaceOnUse"><stop offset="0" stop-color="#5f2bd1"/><stop offset="1" stop-color="#3cadde"/></linearGradient><linearGradient id="linear-gradient-2" x1="391.12" y1="88.99" x2="47.81" y2="-38.33" xlink:href="#linear-gradient"/></defs><title>logo</title><g id="Layer_2" data-name="Layer 2"><g id="Layer_1-2" data-name="Layer 1"><g id="Layer_2-2" data-name="Layer 2"><g id="Layer_1-2-2" data-name="Layer 1-2"><path class="cls-1" d="M195.42,59.41q-4,0-8.06.28L173.52,30l-.71-1.52h0a4.75,4.75,0,0,0-7.76,0H165l-.21.48V29l-.19.42L132.25,98.7l-.28.6a69.32,69.32,0,1,1-13-77.95c.29.3.59.61.87.92h0A8.47,8.47,0,1,1,107,33.34h0a52.39,52.39,0,1,0,9.5,59.07c.23-.46.44-.93.65-1.39h0l5.76-12.35,32.46-69.6.7-1.53h0a14.65,14.65,0,0,1,21-5,14.82,14.82,0,0,1,4.7,5.34l.51,1L206,59.78c-3.1-.24-6.23-.38-9.39-.38Zm43,49.91-.31.67-.48,1h0a4.68,4.68,0,0,1-8.1-1.08h0l-16.9-36.25a110.1,110.1,0,0,0-17.75-3.11l-2.45-.2,27,57.84,2.1,4.5a14.93,14.93,0,0,0,24.89-.41h0l1.67-3.58h0l15.41-33c-4.41-2.71-9.32-5.52-14.8-8.27ZM302,12.93l.7-1.51a8.47,8.47,0,0,0-15.63-6.49,2,2,0,0,0-.1.21l-30.78,66q8.54,2.82,16,5.8Z"/><path class="cls-2" d="M230.18,75.51c-8.13-2.9-19.58-7.2-35-8.59-14.64-1.31-31.24-1.17-45.51,2.66a184.87,184.87,0,0,1,45.83-6.47c17.52-.18,34.71,3.82,51.44,8.94,16.45,5,32.75,11.09,47.63,19.83a128.44,128.44,0,0,1,20.86,15.26c5.51,5,10.64,11.17,17.66,14a18.69,18.69,0,0,0,8.09,1.42c9.52-.51,22.09-9.18,22.09-22.09a22.6,22.6,0,0,0-18-21.61,52,52,0,0,0-5.28-.59,45.19,45.19,0,0,1-11.3-1.93A39,39,0,1,1,363,7.08,39.62,39.62,0,0,1,377.29,24.7a8.65,8.65,0,0,1-14.76,8.62c-1.2-1.59-1.72-3.61-2.81-5.29a22.66,22.66,0,0,0-3.58-4.3,22.19,22.19,0,0,0-9.85-5.33,22.72,22.72,0,0,0-5.26-.62,22.18,22.18,0,0,0-7.09,43.15,31.5,31.5,0,0,0,7.28,1.1,64.68,64.68,0,0,1,7.09.84A39.08,39.08,0,0,1,341,140.4,42.86,42.86,0,0,1,330.57,139a44.91,44.91,0,0,1-12.69-5.71c-6.78-4.41-12.42-11.51-18.71-16.73a230.05,230.05,0,0,0-21.05-15.7C267.41,93.63,252.12,83.34,230.18,75.51Z"/><path class="cls-3" d="M25.89,185.4,23,193.57h-4.2l10.06-28.48h5.23l10.48,28.48H40.08l-3-8.17ZM36,181.82c-2.59-7.2-4-11.16-4.67-13.4h0c-.7,2.49-2.32,7.24-4.4,13.4Z"/><path class="cls-3" d="M63.73,185.56c.75,3.31,3,5.05,7,5.05,4.23,0,5.92-1.94,5.92-4.51,0-2.76-1.4-4.24-7-5.58-6.91-1.67-9.16-4.06-9.16-8,0-4.36,3.23-7.8,9.66-7.8,6.93,0,9.77,3.95,10.15,7.77H76c-.47-2.39-1.94-4.43-6-4.43-3.28,0-5.15,1.46-5.15,4s1.54,3.55,6.45,4.73c8.15,2,9.66,5.12,9.66,8.85,0,4.7-3.5,8.3-10.58,8.3s-10.39-3.85-11-8.38Z"/><path class="cls-3" d="M101.37,185.56c.75,3.31,3,5.05,7,5.05,4.22,0,5.92-1.94,5.92-4.51,0-2.76-1.4-4.24-7-5.58-6.91-1.67-9.16-4.06-9.16-8,0-4.36,3.23-7.8,9.66-7.8,6.93,0,9.76,3.95,10.15,7.77h-4.29c-.47-2.39-1.94-4.43-6-4.43-3.29,0-5.15,1.46-5.15,4s1.53,3.55,6.45,4.73c8.15,2,9.66,5.12,9.66,8.85,0,4.7-3.51,8.3-10.58,8.3s-10.39-3.85-11-8.38Z"/><path class="cls-3" d="M161.7,179.18c0,7.85-4.46,14.8-13.48,14.8-8.49,0-13.17-6.48-13.17-14.65s4.85-14.65,13.51-14.65C156.64,164.68,161.7,170.67,161.7,179.18Zm-22.24,0c0,6,3,11.21,8.94,11.21,6.39,0,8.89-5.28,8.89-11.18s-2.83-11-8.91-11-8.92,5-8.92,11Z"/><path class="cls-3" d="M202.68,185.36c-1.24,4.93-4.92,8.58-11.51,8.58-8.61,0-12.91-6.45-12.91-14.51,0-7.75,4.32-14.75,13.08-14.75,6.88,0,10.53,3.95,11.34,8.71h-4.22c-.94-2.93-2.9-5.24-7.28-5.24-6,0-8.51,5.49-8.51,11.14,0,5.45,2.3,11.18,8.68,11.18,4.32,0,6.12-2.55,7.09-5.11Z"/><path class="cls-3" d="M224.64,165.09v28.48h-4.23V165.09Z"/><path class="cls-3" d="M248.56,185.4l-2.91,8.17h-4.19l10-28.48h5.24l10.48,28.48h-4.49l-3-8.17Zm10.14-3.58c-2.58-7.2-4-11.16-4.66-13.4h0c-.7,2.49-2.32,7.24-4.4,13.4Z"/><path class="cls-3" d="M286.31,168.67h-9.1v-3.58h22.44v3.58h-9.09v24.9h-4.25Z"/><path class="cls-3" d="M334.17,180.45H320.11V190h15.46l-.54,3.58H316V165.09h18.86v3.58H320.11v8.26h14.06Z"/><path class="cls-3" d="M355.44,185.56c.75,3.31,3,5.05,7,5.05,4.23,0,5.92-1.94,5.92-4.51,0-2.76-1.4-4.24-6.95-5.58-6.91-1.67-9.16-4.06-9.16-8,0-4.36,3.23-7.8,9.66-7.8,6.93,0,9.77,3.95,10.15,7.77h-4.29c-.47-2.39-1.94-4.43-6-4.43-3.28,0-5.15,1.46-5.15,4s1.53,3.55,6.45,4.73c8.15,2,9.66,5.12,9.66,8.85,0,4.7-3.5,8.3-10.57,8.3s-10.4-3.85-11-8.38Z"/></g></g></g></g></svg>